<svg xmlns="http://www.w3.org/2000/svg" viewBox="0 0 10 10" width="10" height="10" shape-rendering="crispEdges"><rect x="3" y="0" width="4" height="1" fill="#2b1a10"/><rect x="1" y="1" width="2" height="1" fill="#2b1a10"/><rect x="3" y="1" width="4" height="1" fill="#d83a3a"/><rect x="7" y="1" width="2" height="1" fill="#2b1a10"/><rect x="1" y="2" width="1" height="1" fill="#2b1a10"/><rect x="2" y="2" width="1" height="1" fill="#d83a3a"/><rect x="3" y="2" width="1" height="1" fill="#ff8a8a"/><rect x="4" y="2" width="4" height="1" fill="#d83a3a"/><rect x="8" y="2" width="1" height="1" fill="#2b1a10"/><rect x="0" y="3" width="1" height="1" fill="#2b1a10"/><rect x="1" y="3" width="1" height="1" fill="#d83a3a"/><rect x="2" y="3" width="1" height="1" fill="#ff8a8a"/><rect x="3" y="3" width="6" height="1" fill="#d83a3a"/><rect x="9" y="3" width="1" height="1" fill="#2b1a10"/><rect x="0" y="4" width="1" height="1" fill="#2b1a10"/><rect x="1" y="4" width="8" height="1" fill="#ffffff"/><rect x="9" y="4" width="1" height="1" fill="#2b1a10"/><rect x="0" y="5" width="1" height="1" fill="#2b1a10"/><rect x="1" y="5" width="8" height="1" fill="#d83a3a"/><rect x="9" y="5" width="1" height="1" fill="#2b1a10"/><rect x="0" y="6" width="1" height="1" fill="#2b1a10"/><rect x="1" y="6" width="7" height="1" fill="#d83a3a"/><rect x="8" y="6" width="1" height="1" fill="#9c2323"/><rect x="9" y="6" width="1" height="1" fill="#2b1a10"/><rect x="1" y="7" width="1" height="1" fill="#2b1a10"/><rect x="2" y="7" width="5" height="1" fill="#d83a3a"/><rect x="7" y="7" width="1" height="1" fill="#9c2323"/><rect x="8" y="7" width="1" height="1" fill="#2b1a10"/><rect x="1" y="8" width="2" height="1" fill="#2b1a10"/><rect x="3" y="8" width="4" height="1" fill="#9c2323"/><rect x="7" y="8" width="2" height="1" fill="#2b1a10"/><rect x="3" y="9" width="4" height="1" fill="#2b1a10"/></svg>
