<svg xmlns="http://www.w3.org/2000/svg" viewBox="0 0 32 32" width="32" height="32" shape-rendering="crispEdges"><rect x="14" y="0" width="4" height="1" fill="#2b1a10"/><rect x="13" y="1" width="1" height="1" fill="#2b1a10"/><rect x="14" y="1" width="4" height="1" fill="#ffffff"/><rect x="18" y="1" width="1" height="1" fill="#2b1a10"/><rect x="10" y="2" width="12" height="1" fill="#2b1a10"/><rect x="9" y="3" width="1" height="1" fill="#2b1a10"/><rect x="10" y="3" width="12" height="1" fill="#f7c548"/><rect x="22" y="3" width="1" height="1" fill="#2b1a10"/><rect x="8" y="4" width="1" height="1" fill="#2b1a10"/><rect x="9" y="4" width="1" height="1" fill="#f7c548"/><rect x="10" y="4" width="1" height="1" fill="#c98f1e"/><rect x="11" y="4" width="2" height="1" fill="#f7c548"/><rect x="13" y="4" width="1" height="1" fill="#c98f1e"/><rect x="14" y="4" width="4" height="1" fill="#f7c548"/><rect x="18" y="4" width="1" height="1" fill="#c98f1e"/><rect x="19" y="4" width="2" height="1" fill="#f7c548"/><rect x="21" y="4" width="1" height="1" fill="#c98f1e"/><rect x="22" y="4" width="1" height="1" fill="#f7c548"/><rect x="23" y="4" width="1" height="1" fill="#2b1a10"/><rect x="7" y="5" width="1" height="1" fill="#2b1a10"/><rect x="8" y="5" width="16" height="1" fill="#c98f1e"/><rect x="24" y="5" width="1" height="1" fill="#2b1a10"/><rect x="7" y="6" width="18" height="1" fill="#2b1a10"/></svg>
