<svg xmlns="http://www.w3.org/2000/svg" viewBox="0 0 32 32" width="32" height="32" shape-rendering="crispEdges"><rect x="10" y="17" width="1" height="1" fill="#2b1a10"/><rect x="11" y="17" width="3" height="1" fill="#f7c548"/><rect x="14" y="17" width="1" height="1" fill="#2b1a10"/><rect x="15" y="17" width="2" height="1" fill="#c98f1e"/><rect x="17" y="17" width="1" height="1" fill="#2b1a10"/><rect x="18" y="17" width="3" height="1" fill="#f7c548"/><rect x="21" y="17" width="1" height="1" fill="#2b1a10"/><rect x="9" y="18" width="1" height="1" fill="#2b1a10"/><rect x="10" y="18" width="5" height="1" fill="#f7c548"/><rect x="15" y="18" width="2" height="1" fill="#c98f1e"/><rect x="17" y="18" width="5" height="1" fill="#f7c548"/><rect x="22" y="18" width="1" height="1" fill="#2b1a10"/><rect x="8" y="19" width="1" height="1" fill="#2b1a10"/><rect x="9" y="19" width="6" height="1" fill="#f7c548"/><rect x="15" y="19" width="2" height="1" fill="#c98f1e"/><rect x="17" y="19" width="6" height="1" fill="#f7c548"/><rect x="23" y="19" width="1" height="1" fill="#2b1a10"/><rect x="8" y="20" width="1" height="1" fill="#2b1a10"/><rect x="9" y="20" width="6" height="1" fill="#f7c548"/><rect x="15" y="20" width="2" height="1" fill="#2b1a10"/><rect x="17" y="20" width="6" height="1" fill="#f7c548"/><rect x="23" y="20" width="1" height="1" fill="#2b1a10"/><rect x="7" y="21" width="1" height="1" fill="#2b1a10"/><rect x="8" y="21" width="7" height="1" fill="#f7c548"/><rect x="15" y="21" width="2" height="1" fill="#c98f1e"/><rect x="17" y="21" width="7" height="1" fill="#f7c548"/><rect x="24" y="21" width="1" height="1" fill="#2b1a10"/><rect x="7" y="22" width="1" height="1" fill="#2b1a10"/><rect x="8" y="22" width="7" height="1" fill="#f7c548"/><rect x="15" y="22" width="2" height="1" fill="#c98f1e"/><rect x="17" y="22" width="7" height="1" fill="#f7c548"/><rect x="24" y="22" width="1" height="1" fill="#2b1a10"/><rect x="7" y="23" width="1" height="1" fill="#2b1a10"/><rect x="8" y="23" width="7" height="1" fill="#f7c548"/><rect x="15" y="23" width="2" height="1" fill="#2b1a10"/><rect x="17" y="23" width="7" height="1" fill="#f7c548"/><rect x="24" y="23" width="1" height="1" fill="#2b1a10"/><rect x="6" y="24" width="1" height="1" fill="#2b1a10"/><rect x="7" y="24" width="18" height="1" fill="#c98f1e"/><rect x="25" y="24" width="1" height="1" fill="#2b1a10"/><rect x="6" y="25" width="20" height="1" fill="#2b1a10"/></svg>
