<svg xmlns="http://www.w3.org/2000/svg" viewBox="0 0 16 22" width="16" height="22" shape-rendering="crispEdges"><rect x="0" y="0" width="16" height="1" fill="#2b1a10"/><rect x="0" y="1" width="1" height="1" fill="#2b1a10"/><rect x="1" y="1" width="14" height="1" fill="#c97b4a"/><rect x="15" y="1" width="1" height="1" fill="#2b1a10"/><rect x="0" y="2" width="1" height="1" fill="#2b1a10"/><rect x="1" y="2" width="1" height="1" fill="#c97b4a"/><rect x="2" y="2" width="1" height="1" fill="#8a4f2a"/><rect x="3" y="2" width="1" height="1" fill="#d83a3a"/><rect x="4" y="2" width="1" height="1" fill="#8a4f2a"/><rect x="5" y="2" width="2" height="1" fill="#3b6fd1"/><rect x="7" y="2" width="3" height="1" fill="#8a4f2a"/><rect x="10" y="2" width="1" height="1" fill="#4caf50"/><rect x="11" y="2" width="1" height="1" fill="#6b6f80"/><rect x="12" y="2" width="2" height="1" fill="#8a4f2a"/><rect x="14" y="2" width="1" height="1" fill="#c97b4a"/><rect x="15" y="2" width="1" height="1" fill="#2b1a10"/><rect x="0" y="3" width="1" height="1" fill="#2b1a10"/><rect x="1" y="3" width="1" height="1" fill="#c97b4a"/><rect x="2" y="3" width="1" height="1" fill="#8a4f2a"/><rect x="3" y="3" width="1" height="1" fill="#d83a3a"/><rect x="4" y="3" width="1" height="1" fill="#f7c548"/><rect x="5" y="3" width="2" height="1" fill="#3b6fd1"/><rect x="7" y="3" width="1" height="1" fill="#8a4f2a"/><rect x="8" y="3" width="1" height="1" fill="#e9785b"/><rect x="9" y="3" width="1" height="1" fill="#8a4f2a"/><rect x="10" y="3" width="1" height="1" fill="#4caf50"/><rect x="11" y="3" width="1" height="1" fill="#6b6f80"/><rect x="12" y="3" width="1" height="1" fill="#d83a3a"/><rect x="13" y="3" width="1" height="1" fill="#8a4f2a"/><rect x="14" y="3" width="1" height="1" fill="#c97b4a"/><rect x="15" y="3" width="1" height="1" fill="#2b1a10"/><rect x="0" y="4" width="1" height="1" fill="#2b1a10"/><rect x="1" y="4" width="1" height="1" fill="#c97b4a"/><rect x="2" y="4" width="1" height="1" fill="#8a4f2a"/><rect x="3" y="4" width="1" height="1" fill="#d83a3a"/><rect x="4" y="4" width="1" height="1" fill="#f7c548"/><rect x="5" y="4" width="2" height="1" fill="#3b6fd1"/><rect x="7" y="4" width="1" height="1" fill="#8a4f2a"/><rect x="8" y="4" width="1" height="1" fill="#e9785b"/><rect x="9" y="4" width="1" height="1" fill="#8a4f2a"/><rect x="10" y="4" width="1" height="1" fill="#4caf50"/><rect x="11" y="4" width="1" height="1" fill="#6b6f80"/><rect x="12" y="4" width="1" height="1" fill="#d83a3a"/><rect x="13" y="4" width="1" height="1" fill="#8a4f2a"/><rect x="14" y="4" width="1" height="1" fill="#c97b4a"/><rect x="15" y="4" width="1" height="1" fill="#2b1a10"/><rect x="0" y="5" width="1" height="1" fill="#2b1a10"/><rect x="1" y="5" width="1" height="1" fill="#c97b4a"/><rect x="2" y="5" width="1" height="1" fill="#8a4f2a"/><rect x="3" y="5" width="1" height="1" fill="#d83a3a"/><rect x="4" y="5" width="1" height="1" fill="#f7c548"/><rect x="5" y="5" width="2" height="1" fill="#3b6fd1"/><rect x="7" y="5" width="1" height="1" fill="#8a4f2a"/><rect x="8" y="5" width="1" height="1" fill="#e9785b"/><rect x="9" y="5" width="1" height="1" fill="#8a4f2a"/><rect x="10" y="5" width="1" height="1" fill="#4caf50"/><rect x="11" y="5" width="1" height="1" fill="#6b6f80"/><rect x="12" y="5" width="1" height="1" fill="#d83a3a"/><rect x="13" y="5" width="1" height="1" fill="#8a4f2a"/><rect x="14" y="5" width="1" height="1" fill="#c97b4a"/><rect x="15" y="5" width="1" height="1" fill="#2b1a10"/><rect x="0" y="6" width="1" height="1" fill="#2b1a10"/><rect x="1" y="6" width="1" height="1" fill="#c97b4a"/><rect x="2" y="6" width="1" height="1" fill="#8a4f2a"/><rect x="3" y="6" width="1" height="1" fill="#d83a3a"/><rect x="4" y="6" width="1" height="1" fill="#f7c548"/><rect x="5" y="6" width="2" height="1" fill="#3b6fd1"/><rect x="7" y="6" width="1" height="1" fill="#8a4f2a"/><rect x="8" y="6" width="1" height="1" fill="#e9785b"/><rect x="9" y="6" width="1" height="1" fill="#8a4f2a"/><rect x="10" y="6" width="1" height="1" fill="#4caf50"/><rect x="11" y="6" width="1" height="1" fill="#6b6f80"/><rect x="12" y="6" width="1" height="1" fill="#d83a3a"/><rect x="13" y="6" width="1" height="1" fill="#8a4f2a"/><rect x="14" y="6" width="1" height="1" fill="#c97b4a"/><rect x="15" y="6" width="1" height="1" fill="#2b1a10"/><rect x="0" y="7" width="1" height="1" fill="#2b1a10"/><rect x="1" y="7" width="14" height="1" fill="#c97b4a"/><rect x="15" y="7" width="1" height="1" fill="#2b1a10"/><rect x="0" y="8" width="1" height="1" fill="#2b1a10"/><rect x="1" y="8" width="1" height="1" fill="#c97b4a"/><rect x="2" y="8" width="2" height="1" fill="#8a4f2a"/><rect x="4" y="8" width="1" height="1" fill="#f7c548"/><rect x="5" y="8" width="6" height="1" fill="#8a4f2a"/><rect x="11" y="8" width="1" height="1" fill="#3b6fd1"/><rect x="12" y="8" width="2" height="1" fill="#8a4f2a"/><rect x="14" y="8" width="1" height="1" fill="#c97b4a"/><rect x="15" y="8" width="1" height="1" fill="#2b1a10"/><rect x="0" y="9" width="1" height="1" fill="#2b1a10"/><rect x="1" y="9" width="1" height="1" fill="#c97b4a"/><rect x="2" y="9" width="1" height="1" fill="#8a4f2a"/><rect x="3" y="9" width="3" height="1" fill="#f7c548"/><rect x="6" y="9" width="5" height="1" fill="#8a4f2a"/><rect x="11" y="9" width="1" height="1" fill="#3b6fd1"/><rect x="12" y="9" width="1" height="1" fill="#4caf50"/><rect x="13" y="9" width="1" height="1" fill="#8a4f2a"/><rect x="14" y="9" width="1" height="1" fill="#c97b4a"/><rect x="15" y="9" width="1" height="1" fill="#2b1a10"/><rect x="0" y="10" width="1" height="1" fill="#2b1a10"/><rect x="1" y="10" width="1" height="1" fill="#c97b4a"/><rect x="2" y="10" width="2" height="1" fill="#8a4f2a"/><rect x="4" y="10" width="1" height="1" fill="#f7c548"/><rect x="5" y="10" width="2" height="1" fill="#8a4f2a"/><rect x="7" y="10" width="2" height="1" fill="#d83a3a"/><rect x="9" y="10" width="2" height="1" fill="#8a4f2a"/><rect x="11" y="10" width="1" height="1" fill="#3b6fd1"/><rect x="12" y="10" width="1" height="1" fill="#4caf50"/><rect x="13" y="10" width="1" height="1" fill="#8a4f2a"/><rect x="14" y="10" width="1" height="1" fill="#c97b4a"/><rect x="15" y="10" width="1" height="1" fill="#2b1a10"/><rect x="0" y="11" width="1" height="1" fill="#2b1a10"/><rect x="1" y="11" width="1" height="1" fill="#c97b4a"/><rect x="2" y="11" width="1" height="1" fill="#8a4f2a"/><rect x="3" y="11" width="3" height="1" fill="#2b1a10"/><rect x="6" y="11" width="1" height="1" fill="#8a4f2a"/><rect x="7" y="11" width="2" height="1" fill="#d83a3a"/><rect x="9" y="11" width="2" height="1" fill="#8a4f2a"/><rect x="11" y="11" width="1" height="1" fill="#3b6fd1"/><rect x="12" y="11" width="1" height="1" fill="#4caf50"/><rect x="13" y="11" width="1" height="1" fill="#8a4f2a"/><rect x="14" y="11" width="1" height="1" fill="#c97b4a"/><rect x="15" y="11" width="1" height="1" fill="#2b1a10"/><rect x="0" y="12" width="1" height="1" fill="#2b1a10"/><rect x="1" y="12" width="1" height="1" fill="#c97b4a"/><rect x="2" y="12" width="1" height="1" fill="#8a4f2a"/><rect x="3" y="12" width="3" height="1" fill="#2b1a10"/><rect x="6" y="12" width="1" height="1" fill="#8a4f2a"/><rect x="7" y="12" width="2" height="1" fill="#d83a3a"/><rect x="9" y="12" width="2" height="1" fill="#8a4f2a"/><rect x="11" y="12" width="1" height="1" fill="#3b6fd1"/><rect x="12" y="12" width="1" height="1" fill="#4caf50"/><rect x="13" y="12" width="1" height="1" fill="#8a4f2a"/><rect x="14" y="12" width="1" height="1" fill="#c97b4a"/><rect x="15" y="12" width="1" height="1" fill="#2b1a10"/><rect x="0" y="13" width="1" height="1" fill="#2b1a10"/><rect x="1" y="13" width="14" height="1" fill="#c97b4a"/><rect x="15" y="13" width="1" height="1" fill="#2b1a10"/><rect x="0" y="14" width="1" height="1" fill="#2b1a10"/><rect x="1" y="14" width="1" height="1" fill="#c97b4a"/><rect x="2" y="14" width="1" height="1" fill="#8a4f2a"/><rect x="3" y="14" width="2" height="1" fill="#4caf50"/><rect x="5" y="14" width="1" height="1" fill="#8a4f2a"/><rect x="6" y="14" width="1" height="1" fill="#6b6f80"/><rect x="7" y="14" width="3" height="1" fill="#8a4f2a"/><rect x="10" y="14" width="3" height="1" fill="#e9785b"/><rect x="13" y="14" width="1" height="1" fill="#8a4f2a"/><rect x="14" y="14" width="1" height="1" fill="#c97b4a"/><rect x="15" y="14" width="1" height="1" fill="#2b1a10"/><rect x="0" y="15" width="1" height="1" fill="#2b1a10"/><rect x="1" y="15" width="1" height="1" fill="#c97b4a"/><rect x="2" y="15" width="1" height="1" fill="#8a4f2a"/><rect x="3" y="15" width="2" height="1" fill="#4caf50"/><rect x="5" y="15" width="1" height="1" fill="#8a4f2a"/><rect x="6" y="15" width="2" height="1" fill="#6b6f80"/><rect x="8" y="15" width="2" height="1" fill="#8a4f2a"/><rect x="10" y="15" width="3" height="1" fill="#e9785b"/><rect x="13" y="15" width="1" height="1" fill="#8a4f2a"/><rect x="14" y="15" width="1" height="1" fill="#c97b4a"/><rect x="15" y="15" width="1" height="1" fill="#2b1a10"/><rect x="0" y="16" width="1" height="1" fill="#2b1a10"/><rect x="1" y="16" width="1" height="1" fill="#c97b4a"/><rect x="2" y="16" width="1" height="1" fill="#8a4f2a"/><rect x="3" y="16" width="2" height="1" fill="#4caf50"/><rect x="5" y="16" width="1" height="1" fill="#8a4f2a"/><rect x="6" y="16" width="2" height="1" fill="#6b6f80"/><rect x="8" y="16" width="2" height="1" fill="#8a4f2a"/><rect x="10" y="16" width="3" height="1" fill="#e9785b"/><rect x="13" y="16" width="1" height="1" fill="#8a4f2a"/><rect x="14" y="16" width="1" height="1" fill="#c97b4a"/><rect x="15" y="16" width="1" height="1" fill="#2b1a10"/><rect x="0" y="17" width="1" height="1" fill="#2b1a10"/><rect x="1" y="17" width="1" height="1" fill="#c97b4a"/><rect x="2" y="17" width="1" height="1" fill="#8a4f2a"/><rect x="3" y="17" width="2" height="1" fill="#4caf50"/><rect x="5" y="17" width="1" height="1" fill="#8a4f2a"/><rect x="6" y="17" width="2" height="1" fill="#6b6f80"/><rect x="8" y="17" width="5" height="1" fill="#d83a3a"/><rect x="13" y="17" width="1" height="1" fill="#8a4f2a"/><rect x="14" y="17" width="1" height="1" fill="#c97b4a"/><rect x="15" y="17" width="1" height="1" fill="#2b1a10"/><rect x="0" y="18" width="1" height="1" fill="#2b1a10"/><rect x="1" y="18" width="1" height="1" fill="#c97b4a"/><rect x="2" y="18" width="1" height="1" fill="#8a4f2a"/><rect x="3" y="18" width="2" height="1" fill="#4caf50"/><rect x="5" y="18" width="1" height="1" fill="#8a4f2a"/><rect x="6" y="18" width="2" height="1" fill="#6b6f80"/><rect x="8" y="18" width="5" height="1" fill="#3b6fd1"/><rect x="13" y="18" width="1" height="1" fill="#8a4f2a"/><rect x="14" y="18" width="1" height="1" fill="#c97b4a"/><rect x="15" y="18" width="1" height="1" fill="#2b1a10"/><rect x="0" y="19" width="1" height="1" fill="#2b1a10"/><rect x="1" y="19" width="14" height="1" fill="#c97b4a"/><rect x="15" y="19" width="1" height="1" fill="#2b1a10"/><rect x="0" y="20" width="16" height="1" fill="#2b1a10"/><rect x="1" y="21" width="2" height="1" fill="#2b1a10"/><rect x="13" y="21" width="2" height="1" fill="#2b1a10"/></svg>
