<svg xmlns="http://www.w3.org/2000/svg" viewBox="0 0 34 7" width="34" height="7" shape-rendering="crispEdges"><rect x="3" y="0" width="11" height="1" fill="#2b1a10"/><rect x="20" y="0" width="11" height="1" fill="#2b1a10"/><rect x="1" y="1" width="2" height="1" fill="#2b1a10"/><rect x="3" y="1" width="11" height="1" fill="#e9785b"/><rect x="14" y="1" width="2" height="1" fill="#2b1a10"/><rect x="18" y="1" width="2" height="1" fill="#2b1a10"/><rect x="20" y="1" width="11" height="1" fill="#7fc8a9"/><rect x="31" y="1" width="2" height="1" fill="#2b1a10"/><rect x="0" y="2" width="1" height="1" fill="#2b1a10"/><rect x="1" y="2" width="2" height="1" fill="#e9785b"/><rect x="3" y="2" width="11" height="1" fill="#f2e3c6"/><rect x="14" y="2" width="2" height="1" fill="#e9785b"/><rect x="16" y="2" width="2" height="1" fill="#2b1a10"/><rect x="18" y="2" width="2" height="1" fill="#7fc8a9"/><rect x="20" y="2" width="11" height="1" fill="#f2e3c6"/><rect x="31" y="2" width="2" height="1" fill="#7fc8a9"/><rect x="33" y="2" width="1" height="1" fill="#2b1a10"/><rect x="0" y="3" width="1" height="1" fill="#2b1a10"/><rect x="1" y="3" width="2" height="1" fill="#e9785b"/><rect x="3" y="3" width="11" height="1" fill="#d8c49c"/><rect x="14" y="3" width="2" height="1" fill="#e9785b"/><rect x="16" y="3" width="2" height="1" fill="#2b1a10"/><rect x="18" y="3" width="2" height="1" fill="#7fc8a9"/><rect x="20" y="3" width="11" height="1" fill="#d8c49c"/><rect x="31" y="3" width="2" height="1" fill="#7fc8a9"/><rect x="33" y="3" width="1" height="1" fill="#2b1a10"/><rect x="0" y="4" width="1" height="1" fill="#2b1a10"/><rect x="1" y="4" width="1" height="1" fill="#b5523a"/><rect x="2" y="4" width="13" height="1" fill="#e9785b"/><rect x="15" y="4" width="1" height="1" fill="#b5523a"/><rect x="16" y="4" width="2" height="1" fill="#2b1a10"/><rect x="18" y="4" width="1" height="1" fill="#4f9c7f"/><rect x="19" y="4" width="13" height="1" fill="#7fc8a9"/><rect x="32" y="4" width="1" height="1" fill="#4f9c7f"/><rect x="33" y="4" width="1" height="1" fill="#2b1a10"/><rect x="1" y="5" width="1" height="1" fill="#2b1a10"/><rect x="2" y="5" width="13" height="1" fill="#b5523a"/><rect x="15" y="5" width="1" height="1" fill="#2b1a10"/><rect x="18" y="5" width="1" height="1" fill="#2b1a10"/><rect x="19" y="5" width="13" height="1" fill="#4f9c7f"/><rect x="32" y="5" width="1" height="1" fill="#2b1a10"/><rect x="2" y="6" width="13" height="1" fill="#2b1a10"/><rect x="19" y="6" width="13" height="1" fill="#2b1a10"/></svg>
